<svg xmlns="http://www.w3.org/2000/svg" viewBox="0 0 512 512">
  <defs><linearGradient id="g" x1="0" y1="0" x2="1" y2="1"><stop stop-color="#0b3b31"/><stop offset=".65" stop-color="#13835e"/><stop offset="1" stop-color="#55d8a2"/></linearGradient><filter id="s"><feDropShadow dx="0" dy="18" stdDeviation="18" flood-color="#062b22" flood-opacity=".28"/></filter></defs>
  <rect width="512" height="512" rx="124" fill="url(#g)"/>
  <circle cx="420" cy="88" r="110" fill="#fff" opacity=".06"/>
  <g filter="url(#s)"><path d="M116 173c0-28 23-51 51-51h194c28 0 51 23 51 51v171c0 28-23 51-51 51H167c-28 0-51-23-51-51V173z" fill="#fff"/><path d="M116 200h296v58H116z" fill="#dff7ec"/><path d="M315 250h97v93h-97c-26 0-47-21-47-47s21-46 47-46z" fill="#0f674c"/><circle cx="318" cy="296" r="13" fill="#72efb8"/><path d="M172 332l45-49 37 30 57-75" fill="none" stroke="#21a878" stroke-width="18" stroke-linecap="round" stroke-linejoin="round"/></g>
</svg>
